<?xml version="1.0" encoding="UTF-8"?>
<svg id="Layer_2" data-name="Layer 2" xmlns="http://www.w3.org/2000/svg" viewBox="0 0 39.16 27.89">
  <defs>
    <style>
      .cls-1 {
        fill: #fcc088;
      }

      .cls-1, .cls-2 {
        stroke: #231f20;
        stroke-miterlimit: 10;
      }

      .cls-2 {
        fill: #389e47;
      }
    </style>
  </defs>
  <g id="Layer_1-2" data-name="Layer 1">
    <g>
      <path class="cls-2" d="m22.6,14.7l7.81-12.14c1.34-2.08,4.11-2.68,6.19-1.34h0c2.09,1.34,2.69,4.13,1.34,6.21-3.04,4.7-7.81,12.12-7.81,12.12l-7.53-4.85Z"/>
      <path class="cls-1" d="m24.19,15.73l4.7,3.02-3.18,6.11s-2.86,3.53-6.27,2.26-14.56-5.47-14.56-5.47c0,0-2.89.05-3.27-1.05s-1.92-2.84-.56-4.09.69-1.75,2.86-1.97,3.35.78,3.35.78l.6,1.88s10.23,4.35,12.22,3.73,4.11-5.21,4.11-5.21Z"/>
    </g>
  </g>
</svg>