<?xml version="1.0" encoding="UTF-8"?>
<svg id="Layer_2" data-name="Layer 2" xmlns="http://www.w3.org/2000/svg" viewBox="0 0 12.27 29.4">
  <defs>
    <style>
      .cls-1 {
        fill: #ae1f23;
      }

      .cls-1, .cls-2, .cls-3 {
        stroke: #231f20;
        stroke-miterlimit: 10;
      }

      .cls-2 {
        fill: #c82027;
      }

      .cls-3 {
        fill: #8ba5a4;
      }
    </style>
  </defs>
  <g id="Layer_1-2" data-name="Layer 1">
    <g>
      <path class="cls-3" d="m.5,27.55L2.53,5.78s0-.04,0-.05c.06-.27.58-2.42,3.2-2.5.28,0,.51-.22.53-.49l1.2.11,1.15.11c-.03.28.16.53.44.59.92.18,2.81.8,2.69,2.88-.14,2.48-1.74,18.81-2.05,21.99-.03.3-.29.51-.59.49l-8.13-.76c-.3-.03-.52-.29-.49-.59Z"/>
      <rect class="cls-2" x="6.11" y=".56" width="2.87" height="2.06" rx=".78" ry=".78" transform="translate(.18 -.69) rotate(5.32)"/>
      <rect class="cls-1" x="2.08" y="8.3" width="9.29" height="5.15" rx=".96" ry=".96" transform="translate(1.04 -.58) rotate(5.32)"/>
    </g>
  </g>
</svg>