<?xml version="1.0" encoding="UTF-8"?>
<svg id="Layer_2" data-name="Layer 2" xmlns="http://www.w3.org/2000/svg" viewBox="0 0 570.62 309.32">
  <defs>
    <style>
      .cls-1 {
        fill: none;
      }

      .cls-1, .cls-2, .cls-3, .cls-4, .cls-5, .cls-6, .cls-7 {
        stroke: #231f20;
        stroke-miterlimit: 10;
      }

      .cls-2 {
        fill: #ed2024;
      }

      .cls-3 {
        fill: #fff;
      }

      .cls-4 {
        fill: #3953a4;
      }

      .cls-5 {
        fill: #c2c1c0;
      }

      .cls-6 {
        fill: #d64729;
      }

      .cls-7 {
        fill: #7296c1;
      }
    </style>
  </defs>
  <g id="Layer_1-2" data-name="Layer 1">
    <polygon class="cls-5" points="364.05 37.98 350.5 33.49 280.71 235.9 294.27 240.39 364.05 37.98"/>
    <circle class="cls-5" cx="300.35" cy="216.14" r="30.73"/>
    <rect class="cls-5" x="251.41" y="7.84" width="6.44" height="213.66" transform="translate(509.25 229.34) rotate(-180)"/>
    <polygon class="cls-3" points="227.49 250.71 227.49 125.98 44.68 125.98 43.41 250.71 227.49 250.71"/>
    <rect class="cls-1" x="99.82" y="181.59" width="29.35" height="61.57" rx="4.34" ry="4.34" transform="translate(228.99 424.75) rotate(-180)"/>
    <path class="cls-4" d="m550.82,240.94l19.07-57.85S133.95,249.66.5,209.07v51.59s0,4.82,0,4.82c0,23.93,19.4,43.34,43.34,43.34h415.53c41.4,0,78.09-26.67,90.86-66.05l.59-1.82Z"/>
    <path class="cls-7" d="m192.39,155.05h28.75c3.51,0,6.35,2.85,6.35,6.35v31.82c0,3.66-2.97,6.62-6.62,6.62h-28.48v-44.8h0Z" transform="translate(419.88 354.89) rotate(-180)"/>
    <rect class="cls-7" x="107.24" y="188.35" width="15.66" height="15.66" rx="7.83" ry="7.83" transform="translate(230.13 392.35) rotate(-180)"/>
    <ellipse class="cls-5" cx="361.11" cy="23.45" rx="17.01" ry="16.68"/>
    <line class="cls-1" x1="368.5" y1="38.56" x2="392.44" y2="308.82"/>
    <line class="cls-1" x1="370.24" y1="37.5" x2="403.89" y2="308.82"/>
    <line class="cls-1" x1="370.86" y1="37.68" x2="426.94" y2="308.82"/>
    <line class="cls-1" x1="371.01" y1="36.87" x2="453.53" y2="308.82"/>
    <line class="cls-1" x1="372.77" y1="35.59" x2="467.16" y2="308.5"/>
    <g>
      <path class="cls-3" d="m60.3,193.77c0,8.38,6.79,15.17,15.17,15.17,8.38,0,15.17-6.79,15.17-15.17,0-8.38-6.79-15.17-15.17-15.17-8.38,0-15.17,6.79-15.17,15.17Zm15.32-10.4c13.65,0,13.68,20.75,0,20.75-13.65,0-13.68-20.75,0-20.75Z"/>
      <path class="cls-1" d="m65.07,193.77c.02,5.74,4.66,10.4,10.4,10.4,5.74,0,10.4-4.66,10.4-10.4s-4.66-10.42-10.4-10.4c-5.75.02-10.42,4.7-10.4,10.4Z"/>
      <path class="cls-6" d="m85.03,197.87l4.42,1.79s2.73-5.89-.11-12.04l-4.31,1.8s1.89,4.22,0,8.44Z"/>
      <path class="cls-6" d="m71.3,203.33l-1.78,4.3s5.9,2.66,12.19-.18l-1.76-4.11s-4.31,1.89-8.64,0Z"/>
      <path class="cls-6" d="m66.04,189.26l-4.11-1.98s-3.33,5.56-.36,11.91l4.09-1.45s-1.58-4.09.37-8.48Z"/>
      <path class="cls-6" d="m79.93,184.37l1.86-4.39s-5.89-2.92-12.04-.09l1.63,4.21s4.31-1.62,8.54.27Z"/>
    </g>
    <g>
      <path class="cls-3" d="m148.21,245.95c0,11.85,9.6,21.45,21.45,21.45,11.85,0,21.45-9.6,21.45-21.45s-9.6-21.45-21.45-21.45c-11.85,0-21.45,9.6-21.45,21.45Zm21.66-14.71c19.31,0,19.34,29.35,0,29.35-19.31,0-19.34-29.35,0-29.35Z"/>
      <path class="cls-1" d="m154.95,245.95c.03,8.12,6.59,14.71,14.71,14.71,8.12,0,14.71-6.59,14.71-14.71,0-8.12-6.59-14.73-14.71-14.71-8.14.03-14.74,6.65-14.71,14.71Z"/>
      <path class="cls-6" d="m183.17,251.76l6.25,2.53s3.86-8.34-.15-17.03l-6.1,2.55s2.67,5.96,0,11.94Z"/>
      <path class="cls-6" d="m163.76,259.48l-2.52,6.08s8.34,3.76,17.23-.26l-2.49-5.82s-6.1,2.67-12.22,0Z"/>
      <path class="cls-6" d="m156.32,239.58l-5.81-2.8s-4.71,7.86-.51,16.84l5.79-2.05s-2.23-5.79.53-11.99Z"/>
      <path class="cls-6" d="m175.96,232.66l2.63-6.21s-8.34-4.14-17.03-.12l2.31,5.96s6.1-2.29,12.08.38Z"/>
    </g>
    <g>
      <path class="cls-3" d="m226.74,245.95c0,11.85,9.6,21.45,21.45,21.45,11.85,0,21.45-9.6,21.45-21.45s-9.6-21.45-21.45-21.45c-11.85,0-21.45,9.6-21.45,21.45Zm21.66-14.71c19.31,0,19.34,29.35,0,29.35-19.31,0-19.34-29.35,0-29.35Z"/>
      <path class="cls-1" d="m233.48,245.95c.03,8.12,6.59,14.71,14.71,14.71,8.12,0,14.71-6.59,14.71-14.71,0-8.12-6.59-14.73-14.71-14.71-8.14.03-14.74,6.65-14.71,14.71Z"/>
      <path class="cls-6" d="m261.7,251.76l6.25,2.53s3.86-8.34-.15-17.03l-6.1,2.55s2.67,5.96,0,11.94Z"/>
      <path class="cls-6" d="m242.29,259.48l-2.52,6.08s8.34,3.76,17.23-.26l-2.49-5.82s-6.1,2.67-12.22,0Z"/>
      <path class="cls-6" d="m234.85,239.58l-5.81-2.8s-4.71,7.86-.51,16.84l5.79-2.05s-2.23-5.79.53-11.99Z"/>
      <path class="cls-6" d="m254.49,232.66l2.63-6.21s-8.34-4.14-17.03-.12l2.31,5.96s6.1-2.29,12.08.38Z"/>
    </g>
    <path class="cls-5" d="m57.44,103.45h186.32v22.44H41.98v-6.98c0-8.53,6.93-15.46,15.46-15.46Z" transform="translate(285.75 229.34) rotate(-180)"/>
    <line class="cls-1" x1="235.97" y1="103.45" x2="235.97" y2="86.11"/>
    <line class="cls-1" x1="217.47" y1="103.45" x2="217.47" y2="86.11"/>
    <line class="cls-1" x1="197.9" y1="103.36" x2="197.9" y2="86.02"/>
    <line class="cls-1" x1="179.25" y1="103.36" x2="179.25" y2="86.02"/>
    <line class="cls-1" x1="161.52" y1="103.45" x2="161.52" y2="86.11"/>
    <line class="cls-1" x1="142.87" y1="103.45" x2="142.87" y2="86.11"/>
    <line class="cls-1" x1="125.45" y1="103.36" x2="125.45" y2="86.02"/>
    <line class="cls-1" x1="106.8" y1="103.36" x2="106.8" y2="86.02"/>
    <line class="cls-1" x1="88.4" y1="103.45" x2="88.4" y2="86.11"/>
    <line class="cls-1" x1="69.75" y1="103.45" x2="69.75" y2="86.11"/>
    <line class="cls-1" x1="48.4" y1="103.45" x2="48.4" y2="86.11"/>
    <line class="cls-1" x1="236.58" y1="86.02" x2="47.87" y2="86.02"/>
    <line class="cls-1" x1="452.31" y1="265.56" x2="389.48" y2="275.2"/>
    <line class="cls-1" x1="444.56" y1="243.16" x2="387.3" y2="250.58"/>
    <line class="cls-1" x1="437.07" y1="221.5" x2="385.31" y2="225.51"/>
    <line class="cls-1" x1="429.36" y1="199.19" x2="383.12" y2="203.33"/>
    <line class="cls-1" x1="423.24" y1="181.51" x2="381.32" y2="183.09"/>
    <line class="cls-1" x1="418.05" y1="166.48" x2="379.98" y2="167.94"/>
    <line class="cls-1" x1="413.11" y1="152.2" x2="378.67" y2="153.15"/>
    <line class="cls-1" x1="407.83" y1="136.94" x2="377.24" y2="136.94"/>
    <line class="cls-1" x1="402.28" y1="120.91" x2="375.8" y2="120.91"/>
    <line class="cls-1" x1="397.19" y1="106.18" x2="374.61" y2="106.18"/>
    <line class="cls-1" x1="391.4" y1="89.43" x2="373.03" y2="89.43"/>
    <rect class="cls-2" x="205.55" y="11.05" width="45.86" height="29.08" transform="translate(456.96 51.18) rotate(-180)"/>
    <circle class="cls-5" cx="254.63" cy="5.77" r="5.27"/>
    <line class="cls-1" x1="392.16" y1="305.39" x2="462.36" y2="294.62"/>
  </g>
</svg>