<?xml version="1.0" encoding="UTF-8"?>
<svg id="Layer_2" data-name="Layer 2" xmlns="http://www.w3.org/2000/svg" viewBox="0 0 247.3 106.5">
  <defs>
    <style>
      .cls-1 {
        fill: none;
      }

      .cls-1, .cls-2, .cls-3 {
        stroke: #231f20;
        stroke-miterlimit: 10;
      }

      .cls-2 {
        fill: #fff;
      }
    </style>
  </defs>
  <g id="Layer_1-2" data-name="Layer 1">
    <g>
      <path class="cls-2" d="m19.06,63.81s30.4,20.53,77.39,24.86c33.63,3.1,75.76-2.09,121.32-29.05l28.73,16.55-8.22-32.45,8.22-31.54-28.73,17.44S106.23-16.53,22.39,35.01L.85,49.48l18.22,14.33Z"/>
      <path class="cls-2" d="m49.85,78.39c.19.07,12.89-25.41,0-56.42"/>
      <circle class="cls-3" cx="37.95" cy="39.83" r="3.55"/>
      <path class="cls-1" d="m96.73,11.5c11.35-4.58,23.08-7.28,35.04-9.88,3.59-.78,7.3-1.48,10.93-.89s7.22,2.7,8.61,6.1c.79,1.92.82,4.05.83,6.13"/>
      <path class="cls-1" d="m104.21,89.46c1.61,3.59,4.26,6.6,6.9,9.52,2.96,3.29,5.82,5.51,10.12,6.53,4.8,1.14,10.15.21,14.42-2.27.51-.3,1.03-.61,1.41-1.07,1.46-1.76.14-4.38-1.19-6.25-1.54-2.16-3.13-5.11-4.68-7.28"/>
    </g>
  </g>
</svg>