<?xml version="1.0" encoding="UTF-8"?>
<svg id="Layer_2" data-name="Layer 2" xmlns="http://www.w3.org/2000/svg" viewBox="0 0 50.25 81.9">
  <defs>
    <style>
      .cls-1 {
        fill: #5dba47;
      }

      .cls-1, .cls-2, .cls-3 {
        stroke: #231f20;
        stroke-miterlimit: 10;
      }

      .cls-2 {
        fill: #364ba0;
      }

      .cls-3 {
        fill: #fcc088;
      }
    </style>
  </defs>
  <g id="Layer_1-2" data-name="Layer 1">
    <g>
      <path class="cls-1" d="m19.88,14.06c0,.95-.52,1.72-1.93,1.72-4.94,0-8.94-.77-8.94-1.72s2.9-1.72,7.84-1.72c3.44,0,3.03.77,3.03,1.72Z"/>
      <rect class="cls-2" x="-2.49" y="48.13" width="39.13" height="7.8" rx="3.9" ry="3.9" transform="translate(61.47 84.09) rotate(144)"/>
      <rect class="cls-3" x="31.83" y="28.89" width="5.27" height="8.48" transform="translate(68.94 66.26) rotate(-180)"/>
      <circle class="cls-3" cx="34.36" cy="17.74" r="15.28"/>
      <path class="cls-1" d="m19.19,15.78h15.28c8.44,0,15.28,0,15.28,0,0-8.44-6.84-15.28-15.28-15.28s-15.28,6.84-15.28,15.28Z"/>
      <rect class="cls-2" x="25.41" y="35.1" width="19.26" height="46.3" rx="7.1" ry="7.1" transform="translate(70.09 116.5) rotate(-180)"/>
      <rect class="cls-2" x="3.63" y="48.13" width="39.13" height="7.8" rx="3.9" ry="3.9" transform="translate(72.55 80.49) rotate(144)"/>
    </g>
  </g>
</svg>