<?xml version="1.0" encoding="UTF-8"?>
<svg id="Layer_2" data-name="Layer 2" xmlns="http://www.w3.org/2000/svg" viewBox="0 0 42.29 89.24">
  <defs>
    <style>
      .cls-1 {
        fill: #fcc088;
      }

      .cls-1, .cls-2 {
        stroke: #231f20;
        stroke-miterlimit: 10;
      }

      .cls-2 {
        fill: #389e47;
      }
    </style>
  </defs>
  <g id="Layer_1-2" data-name="Layer 1">
    <g>
      <path class="cls-2" d="m17.92,44.79h11.62v8.96h-11.62c-2.15,0-3.9-1.75-3.9-3.9v-1.15c0-2.15,1.75-3.9,3.9-3.9Z" transform="translate(73.85 63.03) rotate(128.65)"/>
      <path class="cls-1" d="m.95,77.44l2.36,1.65c1.25,1,3.83.54,4.32-3.32l14.88-18.61-4.4-3.52-14.97,18.73c-2.04-.36-3.37,4.12-2.18,5.07Z"/>
      <rect class="cls-1" x="21.83" y="30.05" width="6.05" height="9.74" transform="translate(46.36 72) rotate(-174.68)"/>
      <circle class="cls-1" cx="26.65" cy="15.65" r="15.14"/>
      <rect class="cls-2" x="11.95" y="35.28" width="22.1" height="53.13" rx="6.61" ry="6.61" transform="translate(40.17 125.57) rotate(-174.68)"/>
    </g>
  </g>
</svg>