<?xml version="1.0" encoding="UTF-8"?>
<svg id="Layer_2" data-name="Layer 2" xmlns="http://www.w3.org/2000/svg" viewBox="0 0 66.34 45.12">
  <defs>
    <style>
      .cls-1 {
        fill: #a9a8a9;
        stroke: #000;
      }

      .cls-1, .cls-2, .cls-3, .cls-4, .cls-5 {
        stroke-miterlimit: 10;
      }

      .cls-2 {
        fill: #ddda62;
      }

      .cls-2, .cls-3, .cls-4, .cls-5 {
        stroke: #231f20;
      }

      .cls-3 {
        fill: #828282;
      }

      .cls-6 {
        font-family: Gigi-Regular, Gigi;
        font-size: 15.22px;
      }

      .cls-6, .cls-7 {
        fill: #d8e477;
      }

      .cls-7 {
        stroke-width: 0px;
      }

      .cls-4 {
        fill: #307d3d;
      }

      .cls-5 {
        fill: #a4a43f;
      }
    </style>
  </defs>
  <g id="Layer_1-2" data-name="Layer 1">
    <g>
      <rect class="cls-1" x="59.62" y="4.32" width="1.74" height="7.68" transform="translate(25.18 57.95) rotate(-62.33)"/>
      <g>
        <path class="cls-4" d="m63.83,22.3c-6.15,2.72-47.44,19.05-55.49,22.23-.75.3-2.08-.14-3.22-.56l-2.92-23.3c.54-1.09.1-.06.86-.36l9.55,5.76,9.63,1.58,13.11-2.25,10.26-8.46,4.49-6.81.85-9.62s2.59,4.44,2.64,4.43l10.25,17.37Z"/>
        <rect class="cls-3" x="-9.77" y="30.58" width="24.69" height="2.43" rx=".96" ry=".96" transform="translate(34.09 26.81) rotate(85.65)"/>
        <polygon class="cls-3" points="65.76 18.93 55.18 .97 51.92 .74 64.18 21.66 65.76 18.93"/>
        <path class="cls-2" d="m46.92,15.28c-1.22,1.18-1.63,2.45-8.69,5.75-1,.47-1.35,2.77-2.53,3.3-2.39,1.07-4.72.87-6.32,1.59-4.51,2.04-7.19,1.74-9.03,1.41-2.33-.42,5.24,8.97,16.59,4.42,12.04-4.82,11.72-18.16,9.97-16.47Z"/>
        <path class="cls-5" d="m46.01,16.96c-.22-.35-2.09,1.49-8.07,4.28-.85.4-1.14,2.35-2.14,2.79-2.02.91-4,.73-5.35,1.35-3.82,1.73-6.22,1.47-7.7,2.02-1.93.72,4.83,5.84,13.07,2.81,8.24-3.03,11.28-11.5,10.19-13.25Z"/>
        <text class="cls-6" transform="translate(30.34 26.81) rotate(66.61) scale(.25 1)"><tspan x="0" y="0">R</tspan></text>
      </g>
      <polygon class="cls-7" points="38.38 23.16 38.29 23.16 37.6 22.41 37.72 22.19 38.38 23.16"/>
      <polygon class="cls-7" points="30.63 26.5 30.73 26.94 30.22 26.04 30.56 25.88 30.63 26.5"/>
    </g>
  </g>
</svg>