<?xml version="1.0" encoding="UTF-8"?>
<svg id="Layer_2" data-name="Layer 2" xmlns="http://www.w3.org/2000/svg" viewBox="0 0 31.73 47.73">
  <defs>
    <style>
      .cls-1 {
        fill: #cccaca;
        stroke: #231f20;
        stroke-miterlimit: 10;
      }
    </style>
  </defs>
  <g id="Layer_1-2" data-name="Layer 1">
    <g>
      <path class="cls-1" d="m7.99.5C3.85.5.5,3.85.5,7.99s3.35,7.49,7.49,7.49,7.49-3.35,7.49-7.49S12.13.5,7.99.5Zm.08,13.49C.33,13.99.35,1.99,8.07,1.99s7.72,12,0,12Z"/>
      <path class="cls-1" d="m23.74.5c-4.14,0-7.49,3.35-7.49,7.49s3.35,7.49,7.49,7.49,7.49-3.35,7.49-7.49S27.87.5,23.74.5Zm-.08,13.41c-7.73,0-7.72-12,0-12s7.72,12,0,12Z"/>
      <path class="cls-1" d="m7.99,16.37c-4.14,0-7.49,3.35-7.49,7.49s3.35,7.49,7.49,7.49,7.49-3.35,7.49-7.49-3.35-7.49-7.49-7.49Zm-.08,13.44c-7.73,0-7.72-12,0-12s7.72,12,0,12Z"/>
      <path class="cls-1" d="m23.74,16.37c-4.14,0-7.49,3.35-7.49,7.49s3.35,7.49,7.49,7.49,7.49-3.35,7.49-7.49-3.35-7.49-7.49-7.49Zm0,13.51c-7.73,0-7.72-12,0-12s7.72,12,0,12Z"/>
      <path class="cls-1" d="m7.99,32.25c-4.14,0-7.49,3.35-7.49,7.49s3.35,7.49,7.49,7.49,7.49-3.35,7.49-7.49-3.35-7.49-7.49-7.49Zm-.08,13.54c-7.73,0-7.72-12,0-12s7.72,12,0,12Z"/>
      <path class="cls-1" d="m23.74,32.25c-4.14,0-7.49,3.35-7.49,7.49s3.35,7.49,7.49,7.49,7.49-3.35,7.49-7.49-3.35-7.49-7.49-7.49Zm-.08,13.46c-7.73,0-7.72-12,0-12s7.72,12,0,12Z"/>
      <path class="cls-1" d="m15.86,11.16l-4.72,4.72,4.72,4.72,4.72-4.72-4.72-4.72Zm1.42,6.09c-1.56,1.61-2.05.8-2.76.11s-1.63-1.25-.07-2.85,2.08-.7,2.79-.01,1.6,1.15.05,2.75Z"/>
      <path class="cls-1" d="m15.86,27.13l-4.72,4.72,4.72,4.72,4.72-4.72-4.72-4.72Zm1.34,6.16c-1.62,1.59-1.76.52-2.52-.03-.88-.63-1.7-1.43-.29-2.82,1.74-1.72,2.15-.71,2.85,0s1.7,1.14-.04,2.85Z"/>
    </g>
  </g>
</svg>