<?xml version="1.0" encoding="UTF-8"?>
<svg id="Layer_2" data-name="Layer 2" xmlns="http://www.w3.org/2000/svg" viewBox="0 0 415.7 151.28">
  <defs>
    <style>
      .cls-1 {
        fill: #5dba47;
      }

      .cls-1, .cls-2, .cls-3, .cls-4, .cls-5, .cls-6, .cls-7, .cls-8 {
        stroke: #231f20;
        stroke-miterlimit: 10;
      }

      .cls-2 {
        fill: #ed2024;
      }

      .cls-3 {
        fill: #fff;
      }

      .cls-4 {
        fill: #364ba0;
      }

      .cls-5 {
        fill: #fcc088;
      }

      .cls-6 {
        fill: #389e47;
      }

      .cls-7 {
        fill: #abc4dd;
      }

      .cls-8 {
        fill: #797a7c;
      }
    </style>
  </defs>
  <g id="Layer_1-2" data-name="Layer 1">
    <g>
      <path class="cls-6" d="m307.4,49.28h11.62v8.96h-11.62c-2.15,0-3.9-1.75-3.9-3.9v-1.15c0-2.15,1.75-3.9,3.9-3.9Z" transform="translate(547.61 -155.77) rotate(128.65)"/>
      <path class="cls-5" d="m290.42,81.93l2.36,1.65c1.25,1,3.83.54,4.32-3.32l14.88-18.61-4.4-3.52-14.97,18.73c-2.04-.36-3.37,4.12-2.18,5.07Z"/>
      <path class="cls-1" d="m185.07,14.06c0,.95-.52,1.72-1.93,1.72-4.94,0-8.94-.77-8.94-1.72s2.9-1.72,7.84-1.72c3.44,0,3.03.77,3.03,1.72Z"/>
      <rect class="cls-4" x="162.7" y="48.13" width="39.13" height="7.8" rx="3.9" ry="3.9" transform="translate(360.31 -13.02) rotate(144)"/>
      <rect class="cls-5" x="197.03" y="28.89" width="5.27" height="8.48" transform="translate(399.33 66.26) rotate(-180)"/>
      <circle class="cls-5" cx="199.55" cy="17.74" r="15.28"/>
      <path class="cls-1" d="m184.39,15.78h15.28c8.44,0,15.28,0,15.28,0,0-8.44-6.84-15.28-15.28-15.28s-15.28,6.84-15.28,15.28Z"/>
      <rect class="cls-4" x="190.61" y="35.1" width="19.26" height="46.3" rx="7.1" ry="7.1" transform="translate(400.48 116.5) rotate(-180)"/>
      <rect class="cls-4" x="168.82" y="48.13" width="39.13" height="7.8" rx="3.9" ry="3.9" transform="translate(371.38 -16.62) rotate(144)"/>
      <rect class="cls-5" x="311.31" y="34.54" width="6.05" height="9.74" transform="translate(623.65 107.81) rotate(-174.68)"/>
      <circle class="cls-5" cx="316.13" cy="20.14" r="15.14"/>
      <rect class="cls-6" x="301.43" y="39.77" width="22.1" height="53.13" rx="6.61" ry="6.61" transform="translate(617.46 161.38) rotate(-174.68)"/>
      <path class="cls-6" d="m302.36,57.74l7.81-12.14c1.34-2.08,4.11-2.68,6.19-1.34h0c2.09,1.34,2.69,4.13,1.34,6.21-3.04,4.7-7.81,12.12-7.81,12.12l-7.53-4.85Z"/>
      <g>
        <rect class="cls-8" x="405.11" y="91.68" width="3.97" height="55.95"/>
        <rect class="cls-8" x="372.32" y="60.49" width="42.88" height="31.18"/>
        <path class="cls-2" d="m137.55,142.31S13.7,145.74.62,86.4h408.46l-16.15,55.95-255.38-.04Z"/>
        <polyline class="cls-3" points="409.08 86.4 404.47 76.4 13.7 76.4 .62 86.4"/>
        <polygon class="cls-7" points="213.7 76.4 84.47 76.4 118.87 38.71 164.88 57.55 213.7 76.4"/>
        <ellipse class="cls-8" cx="409.24" cy="145.86" rx="1.26" ry="4.92"/>
        <ellipse class="cls-8" cx="410.5" cy="138.85" rx="1.26" ry="4.92"/>
        <ellipse class="cls-8" cx="411.76" cy="145.44" rx="1.26" ry="4.92"/>
      </g>
      <path class="cls-5" d="m303.95,58.77l4.7,3.02-3.18,6.11s-2.86,3.53-6.27,2.26-14.56-5.47-14.56-5.47c0,0-2.89.05-3.27-1.05s-1.92-2.84-.56-4.09.69-1.75,2.86-1.97,3.35.78,3.35.78l.6,1.88s10.23,4.35,12.22,3.73,4.11-5.21,4.11-5.21Z"/>
    </g>
  </g>
</svg>