<?xml version="1.0" encoding="UTF-8"?>
<svg id="Layer_2" data-name="Layer 2" xmlns="http://www.w3.org/2000/svg" viewBox="0 0 26.15 76.97">
  <defs>
    <style>
      .cls-1 {
        fill: #ae1f23;
      }

      .cls-1, .cls-2, .cls-3 {
        stroke: #231f20;
        stroke-miterlimit: 10;
      }

      .cls-2 {
        fill: #c82027;
      }

      .cls-3 {
        fill: #8ba5a4;
      }
    </style>
  </defs>
  <g id="Layer_1-2" data-name="Layer 1">
    <g>
      <path class="cls-3" d="m.5,75V15.84c0-.05,0-.1,0-.15.08-.75.95-6.68,8-7.55.74-.09,1.31-.71,1.31-1.46h3.25s3.14-.01,3.14-.01c0,.76.58,1.39,1.34,1.47,2.53.25,7.78,1.44,7.98,7.1.24,6.72.05,51.12,0,59.78,0,.81-.66,1.46-1.47,1.46H1.97c-.81,0-1.47-.66-1.47-1.47Z"/>
      <rect class="cls-2" x="9.08" y=".5" width="7.77" height="5.58" rx=".88" ry=".88"/>
      <rect class="cls-1" x=".5" y="21.56" width="25.15" height="13.95" rx=".96" ry=".96"/>
    </g>
  </g>
</svg>