<?xml version="1.0" encoding="UTF-8"?>
<svg id="Layer_2" data-name="Layer 2" xmlns="http://www.w3.org/2000/svg" viewBox="0 0 570.62 309.32">
  <defs>
    <style>
      .cls-1 {
        fill: none;
      }

      .cls-1, .cls-2, .cls-3, .cls-4, .cls-5, .cls-6, .cls-7 {
        stroke: #231f20;
        stroke-miterlimit: 10;
      }

      .cls-2 {
        fill: #ed2024;
      }

      .cls-3 {
        fill: #fff;
      }

      .cls-4 {
        fill: #3953a4;
      }

      .cls-5 {
        fill: #c2c1c0;
      }

      .cls-6 {
        fill: #d64729;
      }

      .cls-7 {
        fill: #7296c1;
      }
    </style>
  </defs>
  <g id="Layer_1-2" data-name="Layer 1">
    <g>
      <polygon class="cls-5" points="206.57 37.98 220.12 33.49 289.91 235.9 276.35 240.39 206.57 37.98"/>
      <circle class="cls-5" cx="270.27" cy="216.14" r="30.73"/>
      <rect class="cls-5" x="312.78" y="7.84" width="6.44" height="213.66"/>
      <polygon class="cls-3" points="343.13 250.71 343.13 125.98 525.94 125.98 527.21 250.71 343.13 250.71"/>
      <rect class="cls-1" x="441.45" y="181.59" width="29.35" height="61.57" rx="4.34" ry="4.34"/>
      <path class="cls-4" d="m19.8,240.94L.73,183.09s435.94,66.56,569.39,25.98v56.41c0,23.93-19.4,43.34-43.34,43.34H111.25c-41.4,0-78.09-26.67-90.86-66.05l-.59-1.82Z"/>
      <path class="cls-7" d="m343.13,155.05h28.48c3.66,0,6.62,2.97,6.62,6.62v31.82c0,3.51-2.85,6.35-6.35,6.35h-28.75v-44.8h0Z"/>
      <rect class="cls-7" x="447.72" y="188.35" width="15.66" height="15.66" rx="7.83" ry="7.83"/>
      <ellipse class="cls-5" cx="209.51" cy="23.45" rx="17.01" ry="16.68"/>
      <line class="cls-1" x1="202.11" y1="38.47" x2="179.17" y2="297.41"/>
      <line class="cls-1" x1="200.38" y1="37.5" x2="168.39" y2="295.47"/>
      <line class="cls-1" x1="199.76" y1="37.68" x2="147.1" y2="292.24"/>
      <line class="cls-1" x1="199.61" y1="36.87" x2="124.13" y2="285.62"/>
      <line class="cls-1" x1="197.85" y1="35.59" x2="112.53" y2="282.27"/>
      <g>
        <path class="cls-3" d="m495.15,178.6c-8.38,0-15.17,6.79-15.17,15.17s6.79,15.17,15.17,15.17,15.17-6.79,15.17-15.17-6.79-15.17-15.17-15.17Zm-.15,25.52c-13.68,0-13.65-20.75,0-20.75s13.65,20.75,0,20.75Z"/>
        <path class="cls-1" d="m495.15,183.37c-5.74-.02-10.4,4.66-10.4,10.4s4.66,10.4,10.4,10.4,10.38-4.66,10.4-10.4c.02-5.7-4.65-10.38-10.4-10.4Z"/>
        <path class="cls-6" d="m485.59,197.87l-4.42,1.79s-2.73-5.89.11-12.04l4.31,1.8s-1.89,4.22,0,8.44Z"/>
        <path class="cls-6" d="m499.32,203.33l1.78,4.3s-5.9,2.66-12.19-.18l1.76-4.11s4.31,1.89,8.64,0Z"/>
        <path class="cls-6" d="m504.58,189.26l4.11-1.98s3.33,5.56.36,11.91l-4.09-1.45s1.58-4.09-.37-8.48Z"/>
        <path class="cls-6" d="m490.69,184.37l-1.86-4.39s5.89-2.92,12.04-.09l-1.63,4.21s-4.31-1.62-8.54.27Z"/>
      </g>
      <g>
        <path class="cls-3" d="m400.96,224.5c-11.85,0-21.45,9.6-21.45,21.45s9.6,21.45,21.45,21.45,21.45-9.6,21.45-21.45-9.6-21.45-21.45-21.45Zm-.21,36.09c-19.34,0-19.31-29.35,0-29.35s19.31,29.35,0,29.35Z"/>
        <path class="cls-1" d="m400.96,231.25c-8.12-.03-14.71,6.59-14.71,14.71s6.59,14.71,14.71,14.71,14.68-6.59,14.71-14.71c.03-8.06-6.57-14.68-14.71-14.71Z"/>
        <path class="cls-6" d="m387.45,251.76l-6.25,2.53s-3.86-8.34.15-17.03l6.1,2.55s-2.67,5.96,0,11.94Z"/>
        <path class="cls-6" d="m406.86,259.48l2.52,6.08s-8.34,3.76-17.23-.26l2.49-5.82s6.1,2.67,12.22,0Z"/>
        <path class="cls-6" d="m414.3,239.58l5.81-2.8s4.71,7.86.51,16.84l-5.79-2.05s2.23-5.79-.53-11.99Z"/>
        <path class="cls-6" d="m394.66,232.66l-2.63-6.21s8.34-4.14,17.03-.12l-2.31,5.96s-6.1-2.29-12.08.38Z"/>
      </g>
      <g>
        <path class="cls-3" d="m322.43,224.5c-11.85,0-21.45,9.6-21.45,21.45s9.6,21.45,21.45,21.45,21.45-9.6,21.45-21.45-9.6-21.45-21.45-21.45Zm-.21,36.09c-19.34,0-19.31-29.35,0-29.35s19.31,29.35,0,29.35Z"/>
        <path class="cls-1" d="m322.43,231.25c-8.12-.03-14.71,6.59-14.71,14.71s6.59,14.71,14.71,14.71,14.68-6.59,14.71-14.71c.03-8.06-6.57-14.68-14.71-14.71Z"/>
        <path class="cls-6" d="m308.92,251.76l-6.25,2.53s-3.86-8.34.15-17.03l6.1,2.55s-2.67,5.96,0,11.94Z"/>
        <path class="cls-6" d="m328.33,259.48l2.52,6.08s-8.34,3.76-17.23-.26l2.49-5.82s6.1,2.67,12.22,0Z"/>
        <path class="cls-6" d="m335.77,239.58l5.81-2.8s4.71,7.86.51,16.84l-5.79-2.05s2.23-5.79-.53-11.99Z"/>
        <path class="cls-6" d="m316.13,232.66l-2.63-6.21s8.34-4.14,17.03-.12l-2.31,5.96s-6.1-2.29-12.08.38Z"/>
      </g>
      <path class="cls-5" d="m326.86,103.45h201.78v22.44h-186.32c-8.53,0-15.46-6.93-15.46-15.46v-6.98h0Z"/>
      <line class="cls-1" x1="334.65" y1="103.45" x2="334.65" y2="86.11"/>
      <line class="cls-1" x1="353.15" y1="103.45" x2="353.15" y2="86.11"/>
      <line class="cls-1" x1="372.72" y1="103.36" x2="372.72" y2="86.02"/>
      <line class="cls-1" x1="391.37" y1="103.36" x2="391.37" y2="86.02"/>
      <line class="cls-1" x1="409.1" y1="103.45" x2="409.1" y2="86.11"/>
      <line class="cls-1" x1="427.75" y1="103.45" x2="427.75" y2="86.11"/>
      <line class="cls-1" x1="445.17" y1="103.36" x2="445.17" y2="86.02"/>
      <line class="cls-1" x1="463.82" y1="103.36" x2="463.82" y2="86.02"/>
      <line class="cls-1" x1="482.22" y1="103.45" x2="482.22" y2="86.11"/>
      <line class="cls-1" x1="500.87" y1="103.45" x2="500.87" y2="86.11"/>
      <line class="cls-1" x1="522.22" y1="103.45" x2="522.22" y2="86.11"/>
      <line class="cls-1" x1="334.04" y1="86.02" x2="522.75" y2="86.02"/>
      <line class="cls-1" x1="118.31" y1="265.56" x2="181.14" y2="275.2"/>
      <line class="cls-1" x1="126.06" y1="243.16" x2="183.32" y2="250.58"/>
      <line class="cls-1" x1="133.55" y1="221.5" x2="185.31" y2="225.51"/>
      <line class="cls-1" x1="141.26" y1="199.19" x2="187.5" y2="203.33"/>
      <line class="cls-1" x1="147.38" y1="181.51" x2="189.3" y2="183.09"/>
      <line class="cls-1" x1="152.57" y1="166.48" x2="190.64" y2="167.94"/>
      <line class="cls-1" x1="157.51" y1="152.2" x2="191.95" y2="153.15"/>
      <line class="cls-1" x1="162.79" y1="136.94" x2="193.38" y2="136.94"/>
      <line class="cls-1" x1="168.34" y1="120.91" x2="194.82" y2="120.91"/>
      <line class="cls-1" x1="173.43" y1="106.18" x2="196.01" y2="106.18"/>
      <line class="cls-1" x1="179.22" y1="89.43" x2="197.59" y2="89.43"/>
      <rect class="cls-2" x="319.21" y="11.05" width="45.86" height="29.08"/>
      <circle class="cls-5" cx="315.99" cy="5.77" r="5.27"/>
    </g>
  </g>
</svg>