<?xml version="1.0" encoding="UTF-8"?>
<svg id="Layer_2" data-name="Layer 2" xmlns="http://www.w3.org/2000/svg" viewBox="0 0 102.65 44.38">
  <defs>
    <style>
      .cls-1, .cls-2 {
        stroke: #231f20;
        stroke-miterlimit: 10;
      }

      .cls-2 {
        fill: #c2c1c0;
      }
    </style>
  </defs>
  <g id="Layer_1-2" data-name="Layer 1">
    <g>
      <path class="cls-2" d="m40.27,5.02c4.67-1.88,9.49-2.99,14.41-4.06,1.48-.32,3-.61,4.49-.37s2.97,1.11,3.54,2.51c.32.79.34,1.67.34,2.52"/>
      <path class="cls-2" d="m43.35,37.08c.66,1.48,1.75,2.71,2.84,3.92,1.22,1.35,2.39,2.27,4.16,2.69,1.98.47,4.17.09,5.93-.93.21-.12.43-.25.58-.44.6-.72.06-1.8-.49-2.57-.63-.89-1.29-2.1-1.92-2.99"/>
      <path class="cls-2" d="m8.34,26.53s12.5,8.44,31.82,10.22c13.83,1.27,31.15-.86,49.88-11.94l11.81,6.8-3.38-13.34,3.38-12.97-11.81,7.17S44.18-6.5,9.71,14.69L.85,20.64l7.49,5.89Z"/>
      <path class="cls-2" d="m21,32.53c.08.03,5.3-10.45,0-23.2"/>
      <circle class="cls-1" cx="16.11" cy="16.67" r="1.46"/>
    </g>
  </g>
</svg>