<?xml version="1.0" encoding="UTF-8"?>
<svg id="Layer_2" data-name="Layer 2" xmlns="http://www.w3.org/2000/svg" viewBox="0 0 405.79 204.26">
  <defs>
    <style>
      .cls-1 {
        fill: none;
        stroke: #12b261;
        stroke-miterlimit: 10;
      }
    </style>
  </defs>
  <g id="Layer_1-2" data-name="Layer 1">
    <g>
      <rect class="cls-1" x="3.7" y="84.86" width="14.27" height="14.27" transform="translate(-61.87 34.61) rotate(-45)"/>
      <rect class="cls-1" x="23.88" y="84.86" width="14.27" height="14.27" transform="translate(-55.96 48.87) rotate(-45)"/>
      <rect class="cls-1" x="44.05" y="84.86" width="14.27" height="14.27" transform="translate(-50.05 63.14) rotate(-45)"/>
      <rect class="cls-1" x="64.21" y="84.86" width="14.27" height="14.27" transform="translate(-44.15 77.39) rotate(-45)"/>
      <rect class="cls-1" x="84.36" y="84.86" width="14.27" height="14.27" transform="translate(-38.25 91.64) rotate(-45)"/>
      <rect class="cls-1" x="3.72" y="64.7" width="14.27" height="14.27" transform="translate(-47.61 28.72) rotate(-45)"/>
      <rect class="cls-1" x="23.9" y="64.7" width="14.27" height="14.27" transform="translate(-41.7 42.98) rotate(-45)"/>
      <rect class="cls-1" x="44.08" y="64.7" width="14.27" height="14.27" transform="translate(-35.79 57.25) rotate(-45)"/>
      <rect class="cls-1" x="64.23" y="64.7" width="14.27" height="14.27" transform="translate(-29.89 71.5) rotate(-45)"/>
      <rect class="cls-1" x="84.38" y="64.7" width="14.27" height="14.27" transform="translate(-23.99 85.75) rotate(-45)"/>
      <rect class="cls-1" x="3.75" y="44.48" width="14.27" height="14.27" transform="translate(-33.31 22.81) rotate(-45)"/>
      <rect class="cls-1" x="23.92" y="44.48" width="14.27" height="14.27" transform="translate(-27.4 37.08) rotate(-45)"/>
      <rect class="cls-1" x="44.1" y="44.48" width="14.27" height="14.27" transform="translate(-21.49 51.34) rotate(-45)"/>
      <rect class="cls-1" x="64.26" y="44.48" width="14.27" height="14.27" transform="translate(-15.59 65.6) rotate(-45)"/>
      <rect class="cls-1" x="84.41" y="44.48" width="14.27" height="14.27" transform="translate(-9.69 79.85) rotate(-45)"/>
      <rect class="cls-1" x="3.83" y="24.27" width="14.27" height="14.27" transform="translate(-18.99 16.95) rotate(-45)"/>
      <rect class="cls-1" x="24" y="24.27" width="14.27" height="14.27" transform="translate(-13.08 31.21) rotate(-45)"/>
      <rect class="cls-1" x="44.18" y="24.27" width="14.27" height="14.27" transform="translate(-7.17 45.48) rotate(-45)"/>
      <rect class="cls-1" x="64.34" y="24.27" width="14.27" height="14.27" transform="translate(-1.27 59.73) rotate(-45)"/>
      <rect class="cls-1" x="84.49" y="24.27" width="14.27" height="14.27" transform="translate(4.63 73.98) rotate(-45)"/>
      <rect class="cls-1" x="3.72" y="3.98" width="14.27" height="14.27" transform="translate(-4.68 10.93) rotate(-45)"/>
      <rect class="cls-1" x="23.9" y="3.98" width="14.27" height="14.27" transform="translate(1.23 25.2) rotate(-45)"/>
      <rect class="cls-1" x="44.08" y="3.98" width="14.27" height="14.27" transform="translate(7.14 39.47) rotate(-45)"/>
      <rect class="cls-1" x="64.23" y="3.98" width="14.27" height="14.27" transform="translate(13.04 53.72) rotate(-45)"/>
      <rect class="cls-1" x="84.38" y="3.98" width="14.27" height="14.27" transform="translate(18.94 67.97) rotate(-45)"/>
      <rect class="cls-1" x="104.66" y="84.92" width="14.27" height="14.27" transform="translate(-32.35 106.01) rotate(-45)"/>
      <rect class="cls-1" x="124.84" y="84.92" width="14.27" height="14.27" transform="translate(-26.44 120.28) rotate(-45)"/>
      <rect class="cls-1" x="145.02" y="84.92" width="14.27" height="14.27" transform="translate(-20.53 134.55) rotate(-45)"/>
      <rect class="cls-1" x="165.17" y="84.92" width="14.27" height="14.27" transform="translate(-14.62 148.8) rotate(-45)"/>
      <rect class="cls-1" x="185.32" y="84.92" width="14.27" height="14.27" transform="translate(-8.72 163.05) rotate(-45)"/>
      <rect class="cls-1" x="104.69" y="64.76" width="14.27" height="14.27" transform="translate(-18.09 100.13) rotate(-45)"/>
      <rect class="cls-1" x="124.86" y="64.76" width="14.27" height="14.27" transform="translate(-12.18 114.39) rotate(-45)"/>
      <rect class="cls-1" x="145.04" y="64.76" width="14.27" height="14.27" transform="translate(-6.27 128.66) rotate(-45)"/>
      <rect class="cls-1" x="165.2" y="64.76" width="14.27" height="14.27" transform="translate(-.36 142.91) rotate(-45)"/>
      <rect class="cls-1" x="185.35" y="64.76" width="14.27" height="14.27" transform="translate(5.54 157.16) rotate(-45)"/>
      <rect class="cls-1" x="104.71" y="44.55" width="14.27" height="14.27" transform="translate(-3.78 94.22) rotate(-45)"/>
      <rect class="cls-1" x="124.89" y="44.55" width="14.27" height="14.27" transform="translate(2.13 108.49) rotate(-45)"/>
      <rect class="cls-1" x="145.06" y="44.55" width="14.27" height="14.27" transform="translate(8.03 122.75) rotate(-45)"/>
      <rect class="cls-1" x="165.22" y="44.55" width="14.27" height="14.27" transform="translate(13.94 137.01) rotate(-45)"/>
      <rect class="cls-1" x="185.37" y="44.55" width="14.27" height="14.27" transform="translate(19.84 151.26) rotate(-45)"/>
      <rect class="cls-1" x="104.79" y="24.33" width="14.27" height="14.27" transform="translate(10.53 88.36) rotate(-45)"/>
      <rect class="cls-1" x="124.97" y="24.33" width="14.27" height="14.27" transform="translate(16.44 102.62) rotate(-45)"/>
      <rect class="cls-1" x="145.14" y="24.33" width="14.27" height="14.27" transform="translate(22.35 116.89) rotate(-45)"/>
      <rect class="cls-1" x="165.3" y="24.33" width="14.27" height="14.27" transform="translate(28.26 131.14) rotate(-45)"/>
      <rect class="cls-1" x="185.45" y="24.33" width="14.27" height="14.27" transform="translate(34.16 145.39) rotate(-45)"/>
      <rect class="cls-1" x="104.69" y="4.05" width="14.27" height="14.27" transform="translate(24.85 82.34) rotate(-45)"/>
      <rect class="cls-1" x="124.86" y="4.05" width="14.27" height="14.27" transform="translate(30.76 96.61) rotate(-45)"/>
      <rect class="cls-1" x="145.04" y="4.05" width="14.27" height="14.27" transform="translate(36.67 110.88) rotate(-45)"/>
      <rect class="cls-1" x="165.2" y="4.05" width="14.27" height="14.27" transform="translate(42.57 125.13) rotate(-45)"/>
      <rect class="cls-1" x="185.35" y="4.05" width="14.27" height="14.27" transform="translate(48.47 139.38) rotate(-45)"/>
      <rect class="cls-1" x="3.66" y="186.01" width="14.27" height="14.27" transform="translate(-133.41 64.2) rotate(-45)"/>
      <rect class="cls-1" x="23.84" y="186.01" width="14.27" height="14.27" transform="translate(-127.5 78.47) rotate(-45)"/>
      <rect class="cls-1" x="44.01" y="186.01" width="14.27" height="14.27" transform="translate(-121.59 92.74) rotate(-45)"/>
      <rect class="cls-1" x="64.17" y="186.01" width="14.27" height="14.27" transform="translate(-115.69 106.99) rotate(-45)"/>
      <rect class="cls-1" x="84.32" y="186.01" width="14.27" height="14.27" transform="translate(-109.79 121.24) rotate(-45)"/>
      <rect class="cls-1" x="3.68" y="165.85" width="14.27" height="14.27" transform="translate(-119.15 58.32) rotate(-45)"/>
      <rect class="cls-1" x="23.86" y="165.85" width="14.27" height="14.27" transform="translate(-113.24 72.58) rotate(-45)"/>
      <rect class="cls-1" x="44.04" y="165.85" width="14.27" height="14.27" transform="translate(-107.33 86.85) rotate(-45)"/>
      <rect class="cls-1" x="64.19" y="165.85" width="14.27" height="14.27" transform="translate(-101.43 101.1) rotate(-45)"/>
      <rect class="cls-1" x="84.34" y="165.85" width="14.27" height="14.27" transform="translate(-95.53 115.35) rotate(-45)"/>
      <rect class="cls-1" x="3.71" y="145.64" width="14.27" height="14.27" transform="translate(-104.85 52.41) rotate(-45)"/>
      <rect class="cls-1" x="23.88" y="145.64" width="14.27" height="14.27" transform="translate(-98.94 66.68) rotate(-45)"/>
      <rect class="cls-1" x="44.06" y="145.64" width="14.27" height="14.27" transform="translate(-93.03 80.94) rotate(-45)"/>
      <rect class="cls-1" x="64.22" y="145.64" width="14.27" height="14.27" transform="translate(-87.13 95.2) rotate(-45)"/>
      <rect class="cls-1" x="84.37" y="145.64" width="14.27" height="14.27" transform="translate(-81.23 109.45) rotate(-45)"/>
      <rect class="cls-1" x="3.79" y="125.42" width="14.27" height="14.27" transform="translate(-90.53 46.55) rotate(-45)"/>
      <rect class="cls-1" x="23.96" y="125.42" width="14.27" height="14.27" transform="translate(-84.62 60.81) rotate(-45)"/>
      <rect class="cls-1" x="44.14" y="125.42" width="14.27" height="14.27" transform="translate(-78.71 75.08) rotate(-45)"/>
      <rect class="cls-1" x="64.3" y="125.42" width="14.27" height="14.27" transform="translate(-72.81 89.33) rotate(-45)"/>
      <rect class="cls-1" x="84.45" y="125.42" width="14.27" height="14.27" transform="translate(-66.91 103.58) rotate(-45)"/>
      <rect class="cls-1" x="3.68" y="105.14" width="14.27" height="14.27" transform="translate(-76.22 40.53) rotate(-45)"/>
      <rect class="cls-1" x="23.86" y="105.14" width="14.27" height="14.27" transform="translate(-70.31 54.8) rotate(-45)"/>
      <rect class="cls-1" x="44.04" y="105.14" width="14.27" height="14.27" transform="translate(-64.4 69.07) rotate(-45)"/>
      <rect class="cls-1" x="64.19" y="105.14" width="14.27" height="14.27" transform="translate(-58.5 83.32) rotate(-45)"/>
      <rect class="cls-1" x="84.34" y="105.14" width="14.27" height="14.27" transform="translate(-52.59 97.57) rotate(-45)"/>
      <rect class="cls-1" x="104.75" y="185.41" width="14.27" height="14.27" transform="translate(-103.38 135.51) rotate(-45)"/>
      <rect class="cls-1" x="124.93" y="185.41" width="14.27" height="14.27" transform="translate(-97.47 149.77) rotate(-45)"/>
      <rect class="cls-1" x="145.1" y="185.41" width="14.27" height="14.27" transform="translate(-91.56 164.04) rotate(-45)"/>
      <rect class="cls-1" x="165.26" y="185.41" width="14.27" height="14.27" transform="translate(-85.66 178.29) rotate(-45)"/>
      <rect class="cls-1" x="185.41" y="185.41" width="14.27" height="14.27" transform="translate(-79.75 192.54) rotate(-45)"/>
      <rect class="cls-1" x="104.77" y="165.25" width="14.27" height="14.27" transform="translate(-89.12 129.62) rotate(-45)"/>
      <rect class="cls-1" x="124.95" y="165.25" width="14.27" height="14.27" transform="translate(-83.21 143.89) rotate(-45)"/>
      <rect class="cls-1" x="145.12" y="165.25" width="14.27" height="14.27" transform="translate(-77.3 158.15) rotate(-45)"/>
      <rect class="cls-1" x="165.28" y="165.25" width="14.27" height="14.27" transform="translate(-71.39 172.41) rotate(-45)"/>
      <rect class="cls-1" x="185.43" y="165.25" width="14.27" height="14.27" transform="translate(-65.49 186.65) rotate(-45)"/>
      <rect class="cls-1" x="104.79" y="145.03" width="14.27" height="14.27" transform="translate(-74.82 123.71) rotate(-45)"/>
      <rect class="cls-1" x="124.97" y="145.03" width="14.27" height="14.27" transform="translate(-68.91 137.98) rotate(-45)"/>
      <rect class="cls-1" x="145.15" y="145.03" width="14.27" height="14.27" transform="translate(-63 152.25) rotate(-45)"/>
      <rect class="cls-1" x="165.3" y="145.03" width="14.27" height="14.27" transform="translate(-57.09 166.5) rotate(-45)"/>
      <rect class="cls-1" x="185.45" y="145.03" width="14.27" height="14.27" transform="translate(-51.19 180.75) rotate(-45)"/>
      <rect class="cls-1" x="104.87" y="124.82" width="14.27" height="14.27" transform="translate(-60.5 117.85) rotate(-45)"/>
      <rect class="cls-1" x="125.05" y="124.82" width="14.27" height="14.27" transform="translate(-54.59 132.12) rotate(-45)"/>
      <rect class="cls-1" x="145.23" y="124.82" width="14.27" height="14.27" transform="translate(-48.68 146.38) rotate(-45)"/>
      <rect class="cls-1" x="165.38" y="124.82" width="14.27" height="14.27" transform="translate(-42.77 160.64) rotate(-45)"/>
      <rect class="cls-1" x="185.53" y="124.82" width="14.27" height="14.27" transform="translate(-36.87 174.88) rotate(-45)"/>
      <rect class="cls-1" x="104.77" y="104.53" width="14.27" height="14.27" transform="translate(-46.18 111.84) rotate(-45)"/>
      <rect class="cls-1" x="124.95" y="104.53" width="14.27" height="14.27" transform="translate(-40.28 126.1) rotate(-45)"/>
      <rect class="cls-1" x="145.12" y="104.53" width="14.27" height="14.27" transform="translate(-34.37 140.37) rotate(-45)"/>
      <rect class="cls-1" x="165.28" y="104.53" width="14.27" height="14.27" transform="translate(-28.46 154.62) rotate(-45)"/>
      <rect class="cls-1" x="185.43" y="104.53" width="14.27" height="14.27" transform="translate(-22.56 168.87) rotate(-45)"/>
      <rect class="cls-1" x="206.03" y="85.18" width="14.27" height="14.27" transform="translate(-2.84 177.77) rotate(-45)"/>
      <rect class="cls-1" x="226.2" y="85.18" width="14.27" height="14.27" transform="translate(3.07 192.03) rotate(-45)"/>
      <rect class="cls-1" x="246.38" y="85.18" width="14.27" height="14.27" transform="translate(8.98 206.3) rotate(-45)"/>
      <rect class="cls-1" x="266.54" y="85.18" width="14.27" height="14.27" transform="translate(14.88 220.55) rotate(-45)"/>
      <rect class="cls-1" x="286.69" y="85.18" width="14.27" height="14.27" transform="translate(20.78 234.8) rotate(-45)"/>
      <rect class="cls-1" x="206.05" y="65.02" width="14.27" height="14.27" transform="translate(11.42 171.88) rotate(-45)"/>
      <rect class="cls-1" x="226.23" y="65.02" width="14.27" height="14.27" transform="translate(17.33 186.14) rotate(-45)"/>
      <rect class="cls-1" x="246.4" y="65.02" width="14.27" height="14.27" transform="translate(23.24 200.41) rotate(-45)"/>
      <rect class="cls-1" x="266.56" y="65.02" width="14.27" height="14.27" transform="translate(29.14 214.66) rotate(-45)"/>
      <rect class="cls-1" x="286.71" y="65.02" width="14.27" height="14.27" transform="translate(35.04 228.91) rotate(-45)"/>
      <rect class="cls-1" x="206.07" y="44.8" width="14.27" height="14.27" transform="translate(25.72 165.97) rotate(-45)"/>
      <rect class="cls-1" x="226.25" y="44.8" width="14.27" height="14.27" transform="translate(31.63 180.24) rotate(-45)"/>
      <rect class="cls-1" x="246.43" y="44.8" width="14.27" height="14.27" transform="translate(37.54 194.5) rotate(-45)"/>
      <rect class="cls-1" x="266.58" y="44.8" width="14.27" height="14.27" transform="translate(43.45 208.76) rotate(-45)"/>
      <rect class="cls-1" x="286.73" y="44.8" width="14.27" height="14.27" transform="translate(49.35 223.01) rotate(-45)"/>
      <rect class="cls-1" x="206.15" y="24.59" width="14.27" height="14.27" transform="translate(40.04 160.11) rotate(-45)"/>
      <rect class="cls-1" x="226.33" y="24.59" width="14.27" height="14.27" transform="translate(45.95 174.37) rotate(-45)"/>
      <rect class="cls-1" x="246.51" y="24.59" width="14.27" height="14.27" transform="translate(51.86 188.64) rotate(-45)"/>
      <rect class="cls-1" x="266.66" y="24.59" width="14.27" height="14.27" transform="translate(57.76 202.89) rotate(-45)"/>
      <rect class="cls-1" x="286.81" y="24.59" width="14.27" height="14.27" transform="translate(63.66 217.14) rotate(-45)"/>
      <rect class="cls-1" x="206.05" y="4.3" width="14.27" height="14.27" transform="translate(54.35 154.09) rotate(-45)"/>
      <rect class="cls-1" x="226.23" y="4.3" width="14.27" height="14.27" transform="translate(60.26 168.36) rotate(-45)"/>
      <rect class="cls-1" x="246.4" y="4.3" width="14.27" height="14.27" transform="translate(66.17 182.63) rotate(-45)"/>
      <rect class="cls-1" x="266.56" y="4.3" width="14.27" height="14.27" transform="translate(72.08 196.88) rotate(-45)"/>
      <rect class="cls-1" x="286.71" y="4.3" width="14.27" height="14.27" transform="translate(77.98 211.13) rotate(-45)"/>
      <rect class="cls-1" x="306.99" y="85.24" width="14.27" height="14.27" transform="translate(26.69 249.17) rotate(-45)"/>
      <rect class="cls-1" x="327.17" y="85.24" width="14.27" height="14.27" transform="translate(32.6 263.44) rotate(-45)"/>
      <rect class="cls-1" x="347.34" y="85.24" width="14.27" height="14.27" transform="translate(38.51 277.71) rotate(-45)"/>
      <rect class="cls-1" x="367.5" y="85.24" width="14.27" height="14.27" transform="translate(44.41 291.96) rotate(-45)"/>
      <rect class="cls-1" x="387.65" y="85.24" width="14.27" height="14.27" transform="translate(50.31 306.21) rotate(-45)"/>
      <rect class="cls-1" x="307.01" y="65.08" width="14.27" height="14.27" transform="translate(40.95 243.29) rotate(-45)"/>
      <rect class="cls-1" x="327.19" y="65.08" width="14.27" height="14.27" transform="translate(46.86 257.55) rotate(-45)"/>
      <rect class="cls-1" x="347.36" y="65.08" width="14.27" height="14.27" transform="translate(52.77 271.82) rotate(-45)"/>
      <rect class="cls-1" x="367.52" y="65.08" width="14.27" height="14.27" transform="translate(58.67 286.07) rotate(-45)"/>
      <rect class="cls-1" x="387.67" y="65.08" width="14.27" height="14.27" transform="translate(64.57 300.32) rotate(-45)"/>
      <rect class="cls-1" x="307.04" y="44.87" width="14.27" height="14.27" transform="translate(55.25 237.38) rotate(-45)"/>
      <rect class="cls-1" x="327.21" y="44.87" width="14.27" height="14.27" transform="translate(61.16 251.65) rotate(-45)"/>
      <rect class="cls-1" x="347.39" y="44.87" width="14.27" height="14.27" transform="translate(67.07 265.91) rotate(-45)"/>
      <rect class="cls-1" x="367.55" y="44.87" width="14.27" height="14.27" transform="translate(72.97 280.17) rotate(-45)"/>
      <rect class="cls-1" x="387.69" y="44.87" width="14.27" height="14.27" transform="translate(78.87 294.42) rotate(-45)"/>
      <rect class="cls-1" x="307.12" y="24.65" width="14.27" height="14.27" transform="translate(69.57 231.52) rotate(-45)"/>
      <rect class="cls-1" x="327.29" y="24.65" width="14.27" height="14.27" transform="translate(75.48 245.78) rotate(-45)"/>
      <rect class="cls-1" x="347.47" y="24.65" width="14.27" height="14.27" transform="translate(81.39 260.05) rotate(-45)"/>
      <rect class="cls-1" x="367.63" y="24.65" width="14.27" height="14.27" transform="translate(87.29 274.3) rotate(-45)"/>
      <rect class="cls-1" x="387.77" y="24.65" width="14.27" height="14.27" transform="translate(93.19 288.55) rotate(-45)"/>
      <rect class="cls-1" x="307.01" y="4.37" width="14.27" height="14.27" transform="translate(83.88 225.5) rotate(-45)"/>
      <rect class="cls-1" x="327.19" y="4.37" width="14.27" height="14.27" transform="translate(89.79 239.77) rotate(-45)"/>
      <rect class="cls-1" x="347.36" y="4.37" width="14.27" height="14.27" transform="translate(95.7 254.04) rotate(-45)"/>
      <rect class="cls-1" x="367.52" y="4.37" width="14.27" height="14.27" transform="translate(101.6 268.29) rotate(-45)"/>
      <rect class="cls-1" x="387.67" y="4.37" width="14.27" height="14.27" transform="translate(107.5 282.54) rotate(-45)"/>
      <rect class="cls-1" x="205.99" y="186.33" width="14.27" height="14.27" transform="translate(-74.38 207.36) rotate(-45)"/>
      <rect class="cls-1" x="226.16" y="186.33" width="14.27" height="14.27" transform="translate(-68.47 221.63) rotate(-45)"/>
      <rect class="cls-1" x="246.34" y="186.33" width="14.27" height="14.27" transform="translate(-62.56 235.9) rotate(-45)"/>
      <rect class="cls-1" x="266.5" y="186.33" width="14.27" height="14.27" transform="translate(-56.66 250.15) rotate(-45)"/>
      <rect class="cls-1" x="286.65" y="186.33" width="14.27" height="14.27" transform="translate(-50.76 264.4) rotate(-45)"/>
      <rect class="cls-1" x="206.01" y="166.17" width="14.27" height="14.27" transform="translate(-60.12 201.48) rotate(-45)"/>
      <rect class="cls-1" x="226.19" y="166.17" width="14.27" height="14.27" transform="translate(-54.21 215.74) rotate(-45)"/>
      <rect class="cls-1" x="246.36" y="166.17" width="14.27" height="14.27" transform="translate(-48.3 230.01) rotate(-45)"/>
      <rect class="cls-1" x="266.52" y="166.17" width="14.27" height="14.27" transform="translate(-42.4 244.26) rotate(-45)"/>
      <rect class="cls-1" x="286.67" y="166.17" width="14.27" height="14.27" transform="translate(-36.49 258.51) rotate(-45)"/>
      <rect class="cls-1" x="206.03" y="145.96" width="14.27" height="14.27" transform="translate(-45.82 195.57) rotate(-45)"/>
      <rect class="cls-1" x="226.21" y="145.96" width="14.27" height="14.27" transform="translate(-39.91 209.84) rotate(-45)"/>
      <rect class="cls-1" x="246.38" y="145.96" width="14.27" height="14.27" transform="translate(-34 224.1) rotate(-45)"/>
      <rect class="cls-1" x="266.54" y="145.96" width="14.27" height="14.27" transform="translate(-28.09 238.36) rotate(-45)"/>
      <rect class="cls-1" x="286.69" y="145.96" width="14.27" height="14.27" transform="translate(-22.19 252.61) rotate(-45)"/>
      <rect class="cls-1" x="206.11" y="125.74" width="14.27" height="14.27" transform="translate(-31.5 189.71) rotate(-45)"/>
      <rect class="cls-1" x="226.29" y="125.74" width="14.27" height="14.27" transform="translate(-25.59 203.97) rotate(-45)"/>
      <rect class="cls-1" x="246.47" y="125.74" width="14.27" height="14.27" transform="translate(-19.68 218.24) rotate(-45)"/>
      <rect class="cls-1" x="266.62" y="125.74" width="14.27" height="14.27" transform="translate(-13.78 232.49) rotate(-45)"/>
      <rect class="cls-1" x="286.77" y="125.74" width="14.27" height="14.27" transform="translate(-7.87 246.74) rotate(-45)"/>
      <rect class="cls-1" x="206.01" y="105.46" width="14.27" height="14.27" transform="translate(-17.19 183.69) rotate(-45)"/>
      <rect class="cls-1" x="226.19" y="105.46" width="14.27" height="14.27" transform="translate(-11.28 197.96) rotate(-45)"/>
      <rect class="cls-1" x="246.36" y="105.46" width="14.27" height="14.27" transform="translate(-5.37 212.23) rotate(-45)"/>
      <rect class="cls-1" x="266.52" y="105.46" width="14.27" height="14.27" transform="translate(.54 226.48) rotate(-45)"/>
      <rect class="cls-1" x="286.67" y="105.46" width="14.27" height="14.27" transform="translate(6.44 240.73) rotate(-45)"/>
      <rect class="cls-1" x="307.08" y="185.73" width="14.27" height="14.27" transform="translate(-44.35 278.67) rotate(-45)"/>
      <rect class="cls-1" x="327.25" y="185.73" width="14.27" height="14.27" transform="translate(-38.44 292.93) rotate(-45)"/>
      <rect class="cls-1" x="347.43" y="185.73" width="14.27" height="14.27" transform="translate(-32.53 307.2) rotate(-45)"/>
      <rect class="cls-1" x="367.59" y="185.73" width="14.27" height="14.27" transform="translate(-26.62 321.45) rotate(-45)"/>
      <rect class="cls-1" x="387.73" y="185.73" width="14.27" height="14.27" transform="translate(-20.72 335.7) rotate(-45)"/>
      <rect class="cls-1" x="307.1" y="165.57" width="14.27" height="14.27" transform="translate(-30.08 272.78) rotate(-45)"/>
      <rect class="cls-1" x="327.27" y="165.57" width="14.27" height="14.27" transform="translate(-24.18 287.05) rotate(-45)"/>
      <rect class="cls-1" x="347.45" y="165.57" width="14.27" height="14.27" transform="translate(-18.27 301.31) rotate(-45)"/>
      <rect class="cls-1" x="367.61" y="165.57" width="14.27" height="14.27" transform="translate(-12.36 315.57) rotate(-45)"/>
      <rect class="cls-1" x="387.76" y="165.57" width="14.27" height="14.27" transform="translate(-6.46 329.81) rotate(-45)"/>
      <rect class="cls-1" x="307.12" y="145.36" width="14.27" height="14.27" transform="translate(-15.78 266.87) rotate(-45)"/>
      <rect class="cls-1" x="327.3" y="145.36" width="14.27" height="14.27" transform="translate(-9.87 281.14) rotate(-45)"/>
      <rect class="cls-1" x="347.47" y="145.36" width="14.27" height="14.27" transform="translate(-3.96 295.41) rotate(-45)"/>
      <rect class="cls-1" x="367.63" y="145.36" width="14.27" height="14.27" transform="translate(1.94 309.66) rotate(-45)"/>
      <rect class="cls-1" x="387.78" y="145.36" width="14.27" height="14.27" transform="translate(7.84 323.91) rotate(-45)"/>
      <rect class="cls-1" x="307.2" y="125.14" width="14.27" height="14.27" transform="translate(-1.46 261.01) rotate(-45)"/>
      <rect class="cls-1" x="327.38" y="125.14" width="14.27" height="14.27" transform="translate(4.44 275.28) rotate(-45)"/>
      <rect class="cls-1" x="347.55" y="125.14" width="14.27" height="14.27" transform="translate(10.35 289.54) rotate(-45)"/>
      <rect class="cls-1" x="367.71" y="125.14" width="14.27" height="14.27" transform="translate(16.26 303.8) rotate(-45)"/>
      <rect class="cls-1" x="387.86" y="125.14" width="14.27" height="14.27" transform="translate(22.16 318.04) rotate(-45)"/>
      <rect class="cls-1" x="307.1" y="104.86" width="14.27" height="14.27" transform="translate(12.85 255) rotate(-45)"/>
      <rect class="cls-1" x="327.27" y="104.86" width="14.27" height="14.27" transform="translate(18.76 269.26) rotate(-45)"/>
      <rect class="cls-1" x="347.45" y="104.86" width="14.27" height="14.27" transform="translate(24.67 283.53) rotate(-45)"/>
      <rect class="cls-1" x="367.61" y="104.86" width="14.27" height="14.27" transform="translate(30.57 297.78) rotate(-45)"/>
      <rect class="cls-1" x="387.76" y="104.86" width="14.27" height="14.27" transform="translate(36.47 312.03) rotate(-45)"/>
      <path class="cls-1" d="m.71,193.15V11.12h0c0-5.86,4.75-10.62,10.62-10.62h383.02c5.86,0,10.62,4.75,10.62,10.62v181.75"/>
    </g>
  </g>
</svg>