<?xml version="1.0" encoding="UTF-8"?>
<svg id="Layer_2" data-name="Layer 2" xmlns="http://www.w3.org/2000/svg" viewBox="0 0 561.36 270.29">
  <defs>
    <style>
      .cls-1 {
        fill: none;
        stroke: #231f20;
        stroke-miterlimit: 10;
      }
    </style>
  </defs>
  <g id="Layer_1-2" data-name="Layer 1">
    <g>
      <path class="cls-1" d="m.37,268.52c33.9-37.53,57.18-83.16,83.78-126.18,26.6-43.01,58.28-85.09,102.65-109.36,14.54-7.95,30.14-13.81,45.99-18.62,39.07-11.85,80.56-17.46,120.93-11.39,40.37,6.07,79.58,24.5,106.59,55.11,16.01,18.15,27.31,39.88,38.45,61.37,31.78,61.33,36.79,60.29,62.13,124.56"/>
      <path class="cls-1" d="m22.91,269.58c31.3-37.53,52.79-83.16,77.36-126.18,24.56-43.01,53.81-85.09,94.77-109.36,13.42-7.95,27.83-13.81,42.46-18.62,36.07-11.85,74.38-17.46,111.65-11.39,37.27,6.07,73.47,24.5,98.41,55.11,14.78,18.15,25.22,39.88,35.5,61.37,29.35,61.33,35.55,64.03,58.95,128.29"/>
      <path class="cls-1" d="m56.63,269.58c27.44-37.53,46.28-83.16,67.81-126.18s47.16-85.09,83.07-109.36c11.76-7.95,24.39-13.81,37.22-18.62,31.62-11.85,65.2-17.46,97.87-11.39,32.67,6.07,64.4,24.5,86.26,55.11,12.96,18.15,22.1,39.88,31.11,61.37,25.72,61.33,38.88,71.25,59.39,135.51"/>
      <path class="cls-1" d="m86.9,269.58c24.3-37.53,40.99-83.16,60.05-126.18,19.07-43.01,41.77-85.09,73.57-109.36,10.42-7.95,21.6-13.81,32.97-18.62,28-11.85,57.74-17.46,86.68-11.39,28.94,6.07,57.04,24.5,76.4,55.11,11.48,18.15,19.58,39.88,27.56,61.37,22.78,61.33,38.73,74.46,56.89,138.72"/>
      <path class="cls-1" d="m117.79,268.52c21.25-37.53,35.84-83.16,52.51-126.18,16.67-43.01,36.52-85.09,64.33-109.36,9.11-7.95,18.89-13.81,28.82-18.62,24.48-11.85,50.49-17.46,75.79-11.39,25.3,6.07,49.87,24.5,66.8,55.11,10.03,18.15,17.12,39.88,24.09,61.37,19.92,61.33,33.91,77.81,49.79,142.07"/>
      <path class="cls-1" d="m138.49,268.52c18.9-37.53,31.88-83.16,46.71-126.18,14.83-43.01,32.49-85.09,57.22-109.36,8.1-7.95,16.8-13.81,25.64-18.62,21.78-11.85,44.91-17.46,67.42-11.39,22.51,6.07,44.36,24.5,59.42,55.11,8.93,18.15,15.23,39.88,21.43,61.37,17.72,61.33,32.95,82.87,47.07,147.13"/>
      <path class="cls-1" d="m163.26,268.52c16.36-37.53,27.59-83.16,40.43-126.18,12.84-43.01,28.12-85.09,49.53-109.36,7.01-7.95,14.54-13.81,22.19-18.62,18.85-11.85,38.87-17.46,58.35-11.39,19.48,6.07,38.4,24.5,51.43,55.11,7.73,18.15,13.18,39.88,18.55,61.37,15.34,61.33,25.43,82.87,37.65,147.13"/>
      <path class="cls-1" d="m186.04,268.52c14.01-37.53,23.63-83.16,34.63-126.18,10.99-43.01,24.08-85.09,42.42-109.36,6.01-7.95,12.46-13.81,19.01-18.62,16.15-11.85,33.29-17.46,49.98-11.39,16.68,6.07,32.89,24.5,44.05,55.11,6.62,18.15,11.29,39.88,15.89,61.37,13.14,61.33,21.94,82.87,32.41,147.13"/>
      <path class="cls-1" d="m210.03,268.52c11.62-37.53,19.61-83.16,28.73-126.18,9.12-43.01,19.98-85.09,35.2-109.36,4.98-7.95,10.33-13.81,15.77-18.62,13.4-11.85,27.62-17.46,41.47-11.39,13.84,6.07,27.29,24.5,36.55,55.11,5.49,18.15,9.36,39.88,13.18,61.37,10.9,61.33,19.22,84.8,27.91,149.06"/>
      <path class="cls-1" d="m227.23,268.52c9.65-37.53,16.27-83.16,23.84-126.18,7.57-43.01,16.59-85.09,29.21-109.36,4.14-7.95,8.58-13.81,13.09-18.62,11.12-11.85,22.93-17.46,34.42-11.39s22.65,24.5,30.33,55.11c4.56,18.15,7.77,39.88,10.94,61.37,9.05,61.33,18.11,86.52,25.32,150.78"/>
      <path class="cls-1" d="m244.63,268.52c7.87-37.53,13.27-83.16,19.45-126.18,6.18-43.01,13.53-85.09,23.83-109.36,3.37-7.95,7-13.81,10.68-18.62,9.07-11.85,18.7-17.46,28.07-11.39s18.47,24.5,24.74,55.11c3.72,18.15,6.34,39.88,8.93,61.37,7.38,61.33,14.77,86.52,20.65,150.78"/>
      <path class="cls-1" d="m262.5,268.52c6.02-37.53,10.16-83.16,14.89-126.18s10.36-85.09,18.24-109.36c2.58-7.95,5.36-13.81,8.17-18.62,6.94-11.85,14.32-17.46,21.49-11.39s14.14,24.5,18.94,55.11c2.85,18.15,4.85,39.88,6.83,61.37,5.65,61.33,11.31,84.69,15.81,148.95"/>
      <path class="cls-1" d="m276.46,265.86c4.47-37.53,7.54-83.16,11.05-126.18s7.69-85.09,13.54-109.36c1.92-7.95,3.98-13.81,6.07-18.62,5.15-11.85,12.05-13.84,17.37-7.76s9.08,20.87,12.64,51.49c2.11,18.15,3.6,39.88,5.07,61.37,4.19,61.33,8.39,89.17,11.74,153.44"/>
      <path class="cls-1" d="m293.34,265.86c2.57-37.53,4.34-83.16,6.36-126.18s4.42-85.09,7.79-109.36c1.1-7.95,2.29-13.81,3.49-18.62,2.96-11.85,6.6-13.84,9.66-7.76s5.56,20.87,7.61,51.49c1.22,18.15,2.07,39.88,2.92,61.37,2.41,61.33,3.65,85.52,5.57,149.79"/>
      <path class="cls-1" d="m307.42,261.83c.99-37.53,1.66-83.16,2.44-126.18.77-43.01,1.7-85.09,2.99-109.36.42-7.95.88-13.81,1.34-18.62,1.14-11.85,3.58-6.16,4.75-.08,1.17,6.07,1.08,13.19,1.86,43.81.47,18.15.79,39.88,1.12,61.37.92,61.33,1.85,89.56,2.59,153.82"/>
      <path class="cls-1" d="m18,247.16s-5.35,8.84,17.33,6.44,16.63,8.06,34.1-3.02c0,0,15.78,10.09,28.32.88,0,0,11.07,7.83,29,0,0,0,3.61,9.89,19.71,0,0,0,6.48,12.04,23.68.04,0,0,4.08,9.53,21.64.48,0,0,14.11,11.15,21.69,4.84,0,0,3.35,5.46,17.5-3.87,0,0,7.57,7.95,16.71,0,0,0,3.16,8.82,17.16,0,0,0-.36,6.57,11.63,0,0,0,2.37,8.6,16.87,0,0,0,3.46,6.57,14.08,0,0,0,9.46,5.89,16.92,0,0,0,2.06,8.64,11.98,0,0,0,4.74,9.52,16.66,0,0,0,.53,12,12.73,0,0,0-.88,14.83,13.56,0,0,0,8.94,15.71,12.72-2.31,0,0,9.79,15.86,14.7,2.7,0,0,6.02,8.33,14.4-6.2,0,0,7.93,11.77,16.41,0,0,0,12.88,13.76,20.66-2.45,0,0,8.37,18.27,17.36,0,0,0,7.42,12.41,19-6.7,0,0,9.53,14.22,17.3-4.18,0,0,11.45,15.69,22.34-5.95,0,0,14.98,9.87,17.4-6.79"/>
      <path class="cls-1" d="m41.32,214.63s-4.99,8.84,16.18,6.44,14.01,9.44,30.32-1.63c0,0,14.66,8.63,26.37-.58,0,0,10.4,7.56,27.14-.27,0,0,3.08,9.85,18.12-.04,0,0,5.73,12.53,21.78.53,0,0,3.92,8.62,20.32-.42,0,0,13.38,10.31,20.45,3.99,0,0,2.24,7.76,15.46-1.57,0,0,7.23,8.44,15.77.49,0,0,2.77,6.78,15.84-2.04,0,0,.37,8.12,11.57,1.55,0,0,1.75,8.6,15.3,0,0,0,2.48,6.57,12.4,0,0,0,8.57,5.89,15.53,0,0,0,2.13,8.64,11.4,0,0,0,4.39,9.52,15.53,0,0,0,.53,12,11.93,0,0,0,7.3,9.36,12.62,0,0,0,6.67,14.27,11.9-1.41,0,0,7.15,8.63,13.55-1.44,0,0,5,10.99,14.17-1.72,0,0,7.32,11.04,15.24-.73,0,0,11.51,14.23,18.77-1.97,0,0,8.09,17.18,16.48-1.09,0,0,7.5,15.43,18.31-3.68,0,0,10.01,13.78,17.27-4.62,0,0,11.38,14.03,21.55-7.61,0,0,12.23,9.58,14.49-7.08"/>
      <path class="cls-1" d="m63.87,176.16s-4.94,8.84,16.02,6.44,8.96,11.93,25.1.85c0,0,13.74,8.5,25.33-.71,0,0,23.83,11.12,40.4,3.29,0,0,5.51,9.73,20.39-.16,0,0,2.9,11.78,18.79-.22,0,0,3.91,8.94,20.14-.1,0,0,6.11,7.58,13.11,1.26,0,0,1.72,8.9,14.8-.42,0,0,17.45,7.67,25.89-.28,0,0,.84,7.9,13.78-.92,0,0,.26,7.8,11.34,1.23,0,0,.84,7.67,14.25-.93,0,0,.9,6.56,10.71-.02,0,0,6.94,5.57,13.83-.31,0,0,2.05,9.49,11.22.86,0,0,.63,11.75,11.65,2.23,0,0-.93,9.53,10.35-2.47,0,0-.49,13.02,12.85-1.8,0,0,9.7,17.02,13.19-1,0,0,9.6,13.04,14.13-.12,0,0,7.29,10.09,15.04-4.44,0,0,7.56,9.51,15.4-2.26,0,0,9.35,16.07,16.54-.13,0,0,9.34,17.9,17.64-.37,0,0,9.96,12.77,20.65-6.34,0,0,9.18,12.78,16.37-5.61"/>
      <path class="cls-1" d="m74.88,156.6s5.6,11.51,18.14,2.31c0,0,6.84,5.83,24.77-2,0,0,7.54,9.05,23.64-.84,0,0,6.71,11.31,23.9-.7,0,0,16.29,11.38,33.86,2.33,0,0,9.43,8.88,17,2.57,0,0,5.47,10.1,19.62.77,0,0,3.24,6.04,12.38-1.91,0,0-.43,8.59,13.57-.23,0,0,2.72,5.66,14.72-.91,0,0,7.82,9.59,22.33.99,0,0-.19,8.46,10.43,1.89,0,0,16.32,7.27,23.77,1.38,0,0,3.05,11.18,12.97,2.54,0,0,8.46,7.87,20.38-1.65,0,0-1.85,13.28,10.35,1.28,0,0,10.43,11.37,24.87-3.46,0,0,8.77,15.39,12.55-2.64,0,0,9.58,12.45,14.48-.7,0,0,5.67,11.7,14.05-2.82,0,0,8.37,14.74,16.85,2.96,0,0,8.21,13.39,15.98-2.82,0,0,12.68,12.48,21.67-5.79,0,0,2.62,13.09,14.19-6.01"/>
      <path class="cls-1" d="m86.9,137.94s3.97,9.2,16.51,0c0,0,6.3,6.97,24.23-.86,0,0,5.57,10.95,21.67,1.06,0,0,5.71,11.32,22.9-.68,0,0,14.03,12.51,31.59,3.46,0,0,9.3,7.75,16.87,1.43,0,0,4.98,6.73,19.12-2.6,0,0,2.14,10.55,11.28,2.6,0,0-.99,8.82,13,0,0,0,10.48,6.02,22.47-.56,0,0,6.78,8.31,12.3,3.36,0,0,12.89,6.99,23.51.41,0,0,2.49,6.09,9.95.2,0,0,11.71,8.08,21.63-.56,0,0,7.13,8.4,19.05-1.12,0,0,.16,11.1,12.36-.9,0,0,6.67,9.3,11.78-.74,0,0,8.03,12.49,11.69-.96,0,0,9.41,13.29,14.31.13,0,0,4.92,11,13.31-3.53,0,0,5.59,10.67,14.07-1.11,0,0,8.09,14.6,15.86-1.61,0,0,12.64,13.69,21.63-4.58,0,0,2.9,14.46,14.47-4.64"/>
      <path class="cls-1" d="m98.96,119.45s19.24,7.85,37.17.02c0,0,5.6,10.2,21.71.31,0,0,4.58,11.59,21.77-.41,0,0,12.86,11.57,30.42,2.52,0,0,8.23,7.29,15.8.98,0,0,3.44,7.19,17.59-2.14,0,0,3.11,6.69,12.25-1.26,0,0-2.09,8.41,11.9-.41,0,0,23.77,12.46,32.21,5.04,1.29-1.14,0,0,1.49.86,1.19.69,14.68,9.54,20.8-1.53,0,0,2.42,8.87,8.81,0,0,0,4.37,6.46,11.83.57,0,0-.91,8.07,9.02-.57,0,0,5.91,8.88,17.84-.64,0,0,6.87,5.73,11.36-3.35,0,0,6.21,9.35,11.09,0,0,0,7.35,11.02,10.97-3.03,0,0,8.25,15.69,13.15,2.53,0,0,3.82,11.7,12.21-2.82,0,0,5.3,10.77,13.78-1,0,0,9.16,19.19,16.93,2.98,0,0,11.88,14.14,20.86-4.13,0,0,10.86,8.24,13.61-4.6"/>
      <path class="cls-1" d="m113.72,100.7s15.14,9.71,33.07,1.88c0,0,4.08,9.48,20.19-.41,0,0,2.53,12.2,19.72.2,0,0,11.7,11.1,29.27,2.05,0,0,7.23,7.69,14.8,1.37,0,0,2.83,6.66,16.98-2.66,0,0,1.56,8.65,10.7.7,0,0,2.42,7.69,10.98.66,0,0,8.54,6.57,20.53,0,0,0,5.73,7.62,20.23-.98,0,0,.95,4.35,11.57-2.23,0,0,11.22,8.75,18.68,2.87,0,0,.3,5.77,10.22-2.87,0,0,4.74,9.52,16.66,0,0,0,3.61,6.59,10.2-.63,0,0,6.94,14.65,21.38-.18,0,0,9.93,12.58,11.17-2.2,0,0,8.6,14.56,13.5,1.41,0,0,8.81,8.6,10.96-2.72,0,0,6.81,11.79,15.29.01,0,0,12.69,13.94,20.47-2.27,0,0,9.63,9.78,14.87-.68"/>
      <path class="cls-1" d="m126.77,82.96s12.56,11.28,30.49,3.45c0,0,4.84,6.38,20.94-3.52,0,0,1.28,12.67,18.47.67,0,0,10.35,7.64,27.91-1.4,0,0,5.98,7.53,13.55,1.21,0,0,.77,9.99,14.92.67,0,0,.58,7.4,9.72-.55,0,0,3.29,8.75,11.17-.42,0,0,6.62,7.9,18.62,1.32,0,0,3.74,8.74,18.25.14,0,0,.33,4.08,10.95-2.49,0,0,10.84,10.53,18.3,4.64,0,0,6.15,8.64,16.07,0,0,0,6.74,9.52,18.66,0,0,0,7.45,6.98,10.36,2.15,0,0,5.92,10.18,20.36-4.65,0,0,10.67,11.43,12.64.49,0,0,8.13,7.38,11-1.79,0,0,10.88,8.76,13.12-1.53,0,0,9.55,7.56,18.03-4.21,0,0,4.43,12.85,12.2-3.35"/>
      <path class="cls-1" d="m145.01,63.85s-.3,7.36,15.8-2.54c0,0,13.6,14.24,30.8,2.24,0,0-.75,8.96,16.81-.09,0,0,16.33,8.15,23.9,1.83,0,0,4.7,5.91,12.99-2.49,0,0,5.83,7.22,14.97-.73,0,0,4.9,9.55,18.89.73,0,0,1.46,6.59,9.76-.52,0,0,4.4,8.91,15.34-.64,0,0,6.87,7.73,17.49,1.15,0,0,9.46,5.89,16.92,0,0,0,3.82,9.13,13.74.49,0,0,4.75,8.95,16.68-.56,0,0,4.77,12.76,9.31,1.96,0,0,11.79,13.8,19.73.36,0,0,16.87,15.72,20.65-2.3,0,0,8.34,14.17,13.24,1.01,0,0,7.15,9.91,15.54-4.62,0,0,10.82,8.04,12.76-1.06"/>
      <path class="cls-1" d="m163.26,48.31s-1.44,5.43,13.42-1.66c0,0-2.26,11.84,14.93-.16,0,0-1.61,7.93,15.96-1.11,0,0,14.52,8.78,22.09,2.46,0,0,1.51,5.08,15.66-4.25,0,0,1.36,8.35,10.5.4,0,0,8.81,7.19,19.39,1.78,0,0,4.3,6.6,16.29.03,0,0-.17,7.43,14.34-1.18,0,0,4.19,7.46,14.8.88,0,0,7.91,6.71,15.37.83,0,0,2.87,9.05,12.79.41,0,0,8.01,6.37,14.61-1.3,0,0,11.19,9.18,14.81-1.59,0,0,13.89,8.86,20.9,3.03,0,0,7.27,6.74,7.28-1.75,0,0,12.83,7.4,12.53,1.28,0,0,15.8,5.82,13.24-3.4,0,0,12.75,7.17,11.41-1.11"/>
      <path class="cls-1" d="m184.74,33.07s4.44,3.7,22-5.35c0,0,14.46,7.26,22.03.94,0,0,2.96,5.02,17.11-4.3,0,0,5.77,8.92,14.9.97,0,0,4.4,9.97,18.4,1.15,0,0-.36,6.57,11.63,0,0,0,2.93,7.4,17.43-1.21,0,0,6.39,4.76,17.01-1.81,0,0,3.72,6.03,11.18.14,0,0,6.23,5.36,9.73,1.02,0,0,5.36,5.11,11.96-.83,0,0,7.92,7.14,12.41-.08,0,0,10.45,8.06,12.25-.75,0,0,13.23,7.97,13.44,3.69,0,0,10.79,4.28,11.35-1.67,0,0,14.43,5.97,11.67.18"/>
    </g>
  </g>
</svg>